<?xml version="1.0" encoding="utf-8"?>
<svg fill="#FF0000" height="200px" width="200px" version="1.1"
    xmlns="http://www.w3.org/2000/svg" xmlns:xlink="http://www.w3.org/1999/xlink"
    viewBox="250 0 265 265" xml:space="preserve">
	<path d="M267.197,130.366c36.384,26.461,83.775,73.852,110.236,110.235c1.505,2.07,3.91,3.295,6.47,3.295s4.964-1.225,6.47-3.295 c26.461-36.383,73.852-83.774,110.236-110.235c2.07-1.505,3.294-3.91,3.294-6.47s-1.225-4.964-3.294-6.47 C464.225,90.966,416.833,43.574,390.373,7.191c-1.505-2.07-3.91-3.295-6.47-3.295s-4.964,1.225-6.47,3.295 c-26.461,36.383-73.852,83.774-110.236,110.235c-2.07,1.505-3.294,3.91-3.294,6.47S265.127,128.861,267.197,130.366z M383.903,25.208c26.044,33.603,65.084,72.643,98.688,98.688c-33.604,26.045-72.644,65.085-98.688,98.688 c-26.044-33.603-65.084-72.643-98.688-98.688C318.818,97.851,357.858,58.811,383.903,25.208z"/>
</svg>