<?xml version="1.0" encoding="utf-8"?>
<svg fill="#FF0000" height="200px" width="200px" version="1.1"
    xmlns="http://www.w3.org/2000/svg" xmlns:xlink="http://www.w3.org/1999/xlink"
    viewBox="0 250 265 265" xml:space="preserve">
	<path d="M170.439,276.007c-19.285,0-37.521,8.365-50.537,22.804c-13.016-14.439-31.251-22.804-50.537-22.804 C31.118,276.007,0,308.436,0,348.298c0,34.451,19.675,70.372,58.479,106.763c28.292,26.534,56.178,43.139,57.352,43.832 c1.256,0.743,2.664,1.114,4.072,1.114s2.816-0.371,4.072-1.114c1.173-0.693,29.059-17.298,57.352-43.832 c38.804-36.391,58.479-72.312,58.479-106.763C239.806,308.436,208.688,276.007,170.439,276.007z M119.903,482.577 C100.212,469.958,16,412.231,16,348.298c0-31.039,23.94-56.291,53.366-56.291c17.464,0,33.858,9.067,43.854,24.255 c1.48,2.248,3.991,3.602,6.683,3.602s5.203-1.354,6.683-3.602c9.996-15.188,26.39-24.255,43.854-24.255 c29.426,0,53.366,25.252,53.366,56.291C223.806,412.231,139.592,469.959,119.903,482.577z"/>
</svg>