<?xml version="1.0" encoding="utf-8"?>
<svg fill="#000000" height="200px" width="200px" version="1.1"
    xmlns="http://www.w3.org/2000/svg" xmlns:xlink="http://www.w3.org/1999/xlink"
    viewBox="0 0 265 265" xml:space="preserve">
	<path d="M127.95,4.923c-2.435-1.369-5.407-1.369-7.842,0C115.532,7.496,8.04,68.8,8.04,143.748 c0,36.937,30.155,66.987,67.22,66.987c7.464,0,14.72-1.192,21.587-3.515c-5.451,11.404-12.65,21.975-21.309,31.201 c-2.183,2.326-2.775,5.726-1.508,8.653c1.267,2.927,4.152,4.821,7.341,4.821h85.938c3.189,0,6.074-1.895,7.341-4.821 c1.268-2.927,0.675-6.327-1.508-8.653c-8.596-9.159-15.759-19.653-21.198-30.973c6.659,2.171,13.668,3.286,20.853,3.286 c37.065,0,67.219-30.05,67.219-66.987C240.017,68.8,132.526,7.496,127.95,4.923z M172.798,194.735 c-11.273,0-21.979-3.603-30.961-10.417c-2.748-2.084-6.521-2.174-9.364-0.222c-2.843,1.952-4.115,5.507-3.156,8.82 c4.458,15.395,11.627,29.999,21.035,42.98H98.331c9.538-13.159,16.77-27.979,21.215-43.609c0.948-3.334-0.358-6.899-3.237-8.831 c-2.878-1.932-6.673-1.79-9.399,0.351c-9.103,7.149-20.047,10.929-31.65,10.929c-28.243,0-51.22-22.873-51.22-50.987 c0-33.705,27.791-65.609,51.105-86.438c20.135-17.989,40.537-31.048,48.884-36.119c8.347,5.071,28.749,18.13,48.884,36.119 c42.238,37.737,51.104,67.834,51.104,86.438C224.017,171.862,201.04,194.735,172.798,194.735z"/>
</svg>